<svg width="24" height="24" viewBox="0 0 24 24" fill="none" xmlns="http://www.w3.org/2000/svg">
<mask id="mask0_996_9354" style="mask-type:luminance" maskUnits="userSpaceOnUse" x="2" y="4" width="20" height="16">
<path d="M12 5C21 5 21 5 21 12C21 19 21 19 12 19C3 19 3 19 3 12C3 5 3 5 12 5Z" fill="white"/>
<path d="M20 12C20 10.2189 19.9973 8.99171 19.8691 8.09473C19.7443 7.22063 19.526 6.87037 19.2607 6.66406C18.9419 6.41628 18.3529 6.21227 17.1172 6.10547C15.905 6.00071 14.2691 6 12 6C9.73093 6 8.09503 6.00071 6.88282 6.10547C5.64711 6.21227 5.05807 6.41628 4.73926 6.66406C4.474 6.87037 4.25573 7.22063 4.13086 8.09473C4.00274 8.99171 4 10.2189 4 12C4 13.7811 4.00274 15.0083 4.13086 15.9053C4.25573 16.7794 4.474 17.1296 4.73926 17.3359C5.05807 17.5837 5.64711 17.7877 6.88282 17.8945C8.09503 17.9993 9.73093 18 12 18C14.2691 18 15.905 17.9993 17.1172 17.8945C18.3529 17.7877 18.9419 17.5837 19.2607 17.3359C19.526 17.1296 19.7443 16.7794 19.8691 15.9053C19.9973 15.0083 20 13.7811 20 12ZM22 12C22 13.7188 22.0027 15.1167 21.8496 16.1885C21.6932 17.2829 21.3487 18.2454 20.4893 18.9141C19.683 19.5412 18.5841 19.7748 17.2891 19.8867C15.9701 20.0007 14.2309 20 12 20C9.76915 20 8.02995 20.0007 6.71094 19.8867C5.41593 19.7748 4.31701 19.5412 3.51075 18.9141C2.65129 18.2454 2.30676 17.2829 2.15039 16.1885C1.99729 15.1167 2 13.7188 2 12C2 10.2812 1.99729 8.88328 2.15039 7.81152C2.30676 6.71707 2.65129 5.75459 3.51075 5.08594C4.31701 4.45885 5.41593 4.2252 6.71094 4.11328C8.02995 3.9993 9.76915 4 12 4C14.2309 4 15.9701 3.9993 17.2891 4.11328C18.5841 4.2252 19.683 4.45885 20.4893 5.08594C21.3487 5.75459 21.6932 6.71707 21.8496 7.81152C22.0027 8.88328 22 10.2812 22 12Z" fill="white"/>
<path d="M10 8.5L16 12L10 15.5V8.5Z" fill="black"/>
</mask>
<g mask="url(#mask0_996_9354)">
<path d="M24 0H0V24H24V0Z" fill="white"/>
</g>
</svg>
